#!OML:ASF I:\Actors\actors\Patient Classification 1\Patient 1\Session 1\Subject1.ASF
:FULLY-SPECIFIED
:DEGREES
849
root 0.557769 17.436 8.5564 3.33337 -2.23872 -9.23408
lowerback 2.29817 1.15154 4.80427
upperback -8.66649 2.21283 3.21796
thorax -10.4879 0.843076 0.514224
lowerneck -10.0356 -2.85563 -0.289539
upperneck 22.158 -5.01918 4.58932
head 8.6881 -1.93249 1.06994
rclavicle -1.90585e-014 1.54058e-014
rhumerus -0.170159 14.3008 -85.0448
rradius 73.4332
rwrist -2.69295
rhand -2.66926 -47.6337
rfingers 7.12502
rthumb 23.0314 -76.2775
lclavicle -1.90585e-014 1.54058e-014
lhumerus 1.26284 -11.9897 85.1332
lradius 76.3356
lwrist 4.56607
lhand -30.1538 -7.05407
lfingers 7.12502
lthumb -3.46597 22.8975
rfemur -4.16671 15.1311 26.7454
rtibia 10.9837
rfoot -13.4014 -19.6006
rtoes -0.767012
lfemur 3.88677 -29.3904 -8.78991
ltibia 0.988
lfoot -12.2657 37.8852
ltoes -4.87365
850
root 0.562784 17.436 8.5557 3.2955 -2.17836 -9.18934
lowerback 2.67768 1.21163 4.9181
upperback -8.81935 2.32903 3.0658
thorax -10.8787 0.873221 0.26884
lowerneck -9.92316 -2.94025 -0.274488
upperneck 22.2458 -5.17413 4.71658
head 8.70536 -1.99121 1.09559
rclavicle -7.62836e-015 -1.83876e-014
rhumerus -0.719557 13.8737 -85.2712
rradius 73.0857
rwrist -3.65837
rhand -2.65375 -47.6692
rfingers 7.12502
rthumb 23.0462 -76.3112
lclavicle -7.62836e-015 -1.83876e-014
lhumerus 1.39097 -12.4403 84.7996
lradius 76.0949
lwrist 5.38517
lhand -29.4862 -6.89815
lfingers 7.12502
lthumb -2.8213 23.0629
rfemur -4.14885 15.0076 26.6761
rtibia 11.0273
rfoot -13.4277 -19.5617
rtoes -0.873185
lfemur 3.79037 -29.0387 -8.76343
ltibia 1.0693
lfoot -12.1066 37.477
ltoes -5.30567
851
root 0.566973 17.4366 8.55583 3.27266 -2.13832 -9.13248
lowerback 2.80321 1.26547 4.88664
upperback -8.81931 2.40316 2.99776
thorax -10.9501 0.90686 0.201768
lowerneck -9.99661 -3.00267 -0.267163
upperneck 22.3139 -5.27703 4.75515
head 8.74648 -2.03208 1.09533
rclavicle 3.55328e-015 -3.39922e-014
rhumerus -0.888676 13.4666 -85.354
rradius 72.6858
rwrist -4.66761
rhand -2.9662 -47.6333
rfingers 7.12502
rthumb 22.7464 -76.3124
lclavicle 3.55328e-015 -3.39922e-014
lhumerus 1.78536 -12.7711 84.4856
lradius 75.8185
lwrist 6.0708
lhand -28.8685 -6.64322
lfingers 7.12502
lthumb -2.22473 23.3249
rfemur -4.12648 15.0072 26.6067
rtibia 11.0472
rfoot -13.4739 -19.6142
rtoes -0.930501
lfemur 3.6976 -28.701 -8.74846
ltibia 1.13129
lfoot -11.9806 37.1247
ltoes -5.74087
852
root 0.573969 17.4354 8.55473 3.38588 -2.20853 -9.11461
lowerback 2.79312 1.3549 4.89915
upperback -8.84421 2.52205 2.9557
thorax -10.9662 0.960767 0.135848
lowerneck -10.108 -3.06652 -0.301805
upperneck 22.4279 -5.38286 4.81636
head 8.81241 -2.07367 1.10877
rclavicle -8.94531e-015 1.19271e-015
rhumerus -0.898974 13.0418 -85.3921
rradius 72.1653
rwrist -5.13117
rhand -2.90979 -47.6334
rfingers 7.12502
rthumb 22.8005 -76.3059
lclavicle -8.94531e-015 1.19271e-015
lhumerus 2.19657 -13.112 84.1699
lradius 75.4931
lwrist 6.42415
lhand -28.579 -6.5501
lfingers 7.12502
lthumb -1.94515 23.4208
rfemur -4.30459 15.0211 26.5156
rtibia 11.109
rfoot -13.4968 -19.5521
rtoes -0.707968
lfemur 3.50521 -28.4438 -8.67266
ltibia 1.18251
lfoot -11.9287 36.9705
ltoes -5.83785
853
root 0.587611 17.4289 8.54747 3.74524 -2.48076 -9.14667
lowerback 2.63849 1.5114 5.06076
upperback -8.94022 2.73403 2.88828
thorax -10.9661 1.04526 -0.0467752
lowerneck -10.1081 -3.11826 -0.283865
upperneck 22.3917 -5.46611 4.85707
head 8.80347 -2.10791 1.11051
rclavicle 2.5842e-015 -2.5842e-014
rhumerus -0.772477 12.6896 -85.38
rradius 71.6088
rwrist -5.07456
rhand -2.36596 -48.0063
rfingers 7.12502
rthumb 23.3223 -76.6136
lclavicle 2.5842e-015 -2.5842e-014
lhumerus 2.62246 -13.5045 83.7223
lradius 75.1337
lwrist 6.48398
lhand -28.5272 -6.69083
lfingers 7.12502
lthumb -1.8951 23.2805
rfemur -4.93264 14.9129 26.3397
rtibia 11.3772
rfoot -13.4497 -19.1522
rtoes -0.817718
lfemur 3.10219 -28.3148 -8.51347
ltibia 1.24038
lfoot -12.0308 37.1307
ltoes -5.49998
854
root 0.591856 17.4307 8.5499 3.82816 -2.33223 -9.14716
lowerback 2.5501 1.50739 5.09429
upperback -8.9239 2.71751 2.82268
thorax -10.8891 1.03283 -0.131644
lowerneck -10.0942 -3.16118 -0.215637
upperneck 22.2575 -5.5328 4.86672
head 8.75555 -2.13603 1.09532
rclavicle 4.72114e-015 1.17283e-014
rhumerus -0.493476 12.4997 -85.2305
rradius 71.101
rwrist -5.10127
rhand -2.01219 -48.5136
rfingers 7.12502
rthumb 23.6617 -77.0774
lclavicle 4.72114e-015 1.17283e-014
lhumerus 3.14367 -13.9156 83.248
lradius 74.7165
lwrist 6.61534
lhand -28.5765 -7.07329
lfingers 7.12502
lthumb -1.94268 22.8976
rfemur -4.9693 14.9742 26.318
rtibia 11.3125
rfoot -13.5184 -19.3245
rtoes -0.540632
lfemur 2.916 -28.3401 -8.42882
ltibia 1.28593
lfoot -11.9309 36.9765
ltoes -5.68672
855
root 0.593916 17.4342 8.55396 3.79734 -2.04228 -9.11995
lowerback 2.52554 1.46652 5.04893
upperback -8.85914 2.64953 2.78036
thorax -10.8015 1.00423 -0.143792
lowerneck -10.1324 -3.21877 -0.267868
upperneck 22.1734 -5.6165 4.945
head 8.74035 -2.17294 1.12078
rclavicle -1.88845e-015 -2.98177e-015
rhumerus -0.0750374 12.5234 -84.8329
rradius 70.678
rwrist -5.65352
rhand -2.21629 -48.949
rfingers 7.12502
rthumb 23.4659 -77.5379
lclavicle -1.88845e-015 -2.98177e-015
lhumerus 3.79671 -14.3045 82.9479
lradius 74.2313
lwrist 7.16794
lhand -28.4369 -7.35187
lfingers 7.12502
lthumb -1.80786 22.6202
rfemur -4.8076 15.0103 26.3158
rtibia 11.1538
rfoot -13.5797 -19.6353
rtoes -0.0695653
lfemur 2.75994 -28.3123 -8.37979
ltibia 1.39594
lfoot -11.7659 36.6687
ltoes -6.13028
